<svg width="256" height="133" viewBox="0 0 256 133" fill="none" xmlns="http://www.w3.org/2000/svg">
<path opacity="0.92" d="M57.3359 68.1895H25.0605L16.6621 86.5H4.40625L41.7109 6.37305L77.6973 86.5H65.2461L57.3359 68.1895ZM52.6973 57.4961L41.5156 31.8613L29.7969 57.4961H52.6973ZM83.5469 11.1094V75.8066H105.715V86.5H72.1699V11.1094H83.5469ZM149.992 68.1895H117.717L109.318 86.5H97.0625L134.367 6.37305L170.354 86.5H157.902L149.992 68.1895ZM145.354 57.4961L134.172 31.8613L122.453 57.4961H145.354ZM162.189 86.5L178.059 5.44531L203.938 64.0391L230.744 5.44531L245.002 86.5H233.332L226.057 40.9922L203.742 89.9668L182.062 40.9434L173.957 86.5H162.189Z" fill="black"/>
<path d="M28.52 98.768H27.296C26.4573 98.768 25.7093 98.8587 25.052 99.04C24.3947 99.1987 23.8053 99.4933 23.284 99.924C22.7627 100.332 22.298 100.91 21.89 101.658C21.482 102.406 21.108 103.358 20.768 104.514H20.326V98.292H41.644V104.514H41.202C40.862 103.358 40.488 102.406 40.08 101.658C39.672 100.91 39.2073 100.332 38.686 99.924C38.1647 99.4933 37.5753 99.1987 36.918 99.04C36.2607 98.8587 35.5127 98.768 34.674 98.768H33.45V122.024H36.578V122.5H25.392V122.024H28.52V98.768ZM61.4347 103.154L57.6267 112.436H65.4467L61.4347 103.154ZM50.2827 122.024H53.1387L63.2707 97.34H64.1887L74.8987 122.024H77.8227V122.5H66.3987V122.024H69.5607L65.6167 112.912H57.4567L53.6827 122.024H56.7087V122.5H50.2827V122.024ZM87.2335 114.952H87.7435C87.7888 115.224 87.8682 115.587 87.9815 116.04C88.0948 116.471 88.2535 116.947 88.4575 117.468C88.6842 117.967 88.9562 118.488 89.2735 119.032C89.6135 119.553 90.0215 120.041 90.4975 120.494C91.0188 121.015 91.5175 121.412 91.9935 121.684C92.4922 121.956 92.9568 122.16 93.3875 122.296C93.8408 122.409 94.2602 122.477 94.6455 122.5C95.0535 122.5 95.4275 122.5 95.7675 122.5C96.9688 122.5 97.9548 122.319 98.7255 121.956C99.4962 121.571 100.097 121.106 100.527 120.562C100.981 120.018 101.298 119.451 101.479 118.862C101.661 118.25 101.751 117.717 101.751 117.264C101.751 116.425 101.547 115.734 101.139 115.19C100.754 114.646 100.233 114.193 99.5755 113.83C98.9182 113.467 98.1702 113.161 97.3315 112.912C96.4928 112.663 95.6315 112.413 94.7475 112.164C93.8635 111.892 93.0022 111.586 92.1635 111.246C91.3248 110.883 90.5768 110.43 89.9195 109.886C89.2622 109.319 88.7295 108.628 88.3215 107.812C87.9362 106.996 87.7435 105.976 87.7435 104.752C87.7435 103.845 87.9475 102.973 88.3555 102.134C88.7635 101.295 89.3302 100.559 90.0555 99.924C90.7808 99.2667 91.6422 98.7453 92.6395 98.36C93.6595 97.952 94.7588 97.748 95.9375 97.748C96.6855 97.748 97.3428 97.816 97.9095 97.952C98.4762 98.088 98.9748 98.2353 99.4055 98.394C99.8362 98.53 100.21 98.666 100.527 98.802C100.867 98.938 101.173 99.006 101.445 99.006C101.763 99.006 101.967 98.9607 102.057 98.87C102.171 98.7567 102.284 98.564 102.397 98.292H102.941V104.752H102.499C102.227 103.959 101.933 103.177 101.615 102.406C101.321 101.635 100.935 100.944 100.459 100.332C99.9835 99.6973 99.3828 99.1873 98.6575 98.802C97.9322 98.4167 97.0142 98.224 95.9035 98.224C94.9968 98.224 94.1922 98.3487 93.4895 98.598C92.8095 98.8473 92.2315 99.176 91.7555 99.584C91.2795 99.992 90.9168 100.445 90.6675 100.944C90.4182 101.443 90.2935 101.953 90.2935 102.474C90.2935 103.267 90.4975 103.925 90.9055 104.446C91.3362 104.967 91.8915 105.421 92.5715 105.806C93.2515 106.169 94.0222 106.486 94.8835 106.758C95.7675 107.03 96.6628 107.313 97.5695 107.608C98.4988 107.903 99.3942 108.231 100.255 108.594C101.139 108.934 101.921 109.376 102.601 109.92C103.281 110.464 103.825 111.121 104.233 111.892C104.664 112.663 104.879 113.615 104.879 114.748C104.879 115.859 104.653 116.913 104.199 117.91C103.746 118.907 103.1 119.78 102.261 120.528C101.445 121.276 100.459 121.877 99.3035 122.33C98.1702 122.761 96.9008 122.976 95.4955 122.976C94.7928 122.976 94.0902 122.908 93.3875 122.772C92.7075 122.636 92.0615 122.5 91.4495 122.364C90.8602 122.205 90.3275 122.058 89.8515 121.922C89.3982 121.786 89.0582 121.718 88.8315 121.718C88.5142 121.718 88.2875 121.775 88.1515 121.888C88.0155 121.979 87.8908 122.183 87.7775 122.5H87.2335V114.952ZM117.848 98.292H129.034V98.768H125.906V109.92H135.732V98.768H132.604V98.292H143.79V98.768H140.662V122.024H143.79V122.5H132.604V122.024H135.732V110.396H125.906V122.024H129.034V122.5H117.848V122.024H120.976V98.768H117.848V98.292ZM158.887 98.768H155.759V98.292H175.853V104.106H175.411C175.093 103.29 174.742 102.553 174.357 101.896C173.994 101.239 173.563 100.683 173.065 100.23C172.566 99.754 171.977 99.3913 171.297 99.142C170.639 98.8927 169.857 98.768 168.951 98.768H163.817V109.716H165.721C166.559 109.716 167.262 109.603 167.829 109.376C168.418 109.127 168.905 108.787 169.291 108.356C169.676 107.903 169.993 107.37 170.243 106.758C170.492 106.123 170.696 105.421 170.855 104.65H171.297V115.224H170.855C170.696 114.567 170.503 113.932 170.277 113.32C170.073 112.708 169.789 112.175 169.427 111.722C169.064 111.246 168.611 110.872 168.067 110.6C167.545 110.328 166.888 110.192 166.095 110.192H163.817V122.024H166.979V122.5H155.759V122.024H158.887V98.768ZM187.262 98.292H198.448V98.768H195.32V122.024H198.448V122.5H187.262V122.024H190.39V98.768H187.262V98.292ZM214.912 110.464C214.912 112.821 215.048 114.782 215.32 116.346C215.592 117.887 216.011 119.123 216.578 120.052C217.167 120.959 217.915 121.593 218.822 121.956C219.751 122.319 220.85 122.5 222.12 122.5C223.797 122.5 225.112 122.194 226.064 121.582C227.016 120.947 227.73 120.086 228.206 118.998C228.682 117.887 228.976 116.584 229.09 115.088C229.226 113.569 229.294 111.926 229.294 110.158C229.294 108.571 229.237 107.064 229.124 105.636C229.033 104.185 228.75 102.916 228.274 101.828C227.798 100.717 227.072 99.8447 226.098 99.21C225.146 98.5527 223.82 98.224 222.12 98.224C220.533 98.224 219.264 98.53 218.312 99.142C217.36 99.7313 216.634 100.57 216.136 101.658C215.637 102.746 215.308 104.038 215.15 105.534C214.991 107.03 214.912 108.673 214.912 110.464ZM232.932 129.742C231.096 129.651 229.588 129.538 228.41 129.402C227.254 129.266 226.29 129.051 225.52 128.756C224.772 128.461 224.148 128.053 223.65 127.532C223.151 127.011 222.652 126.308 222.154 125.424C221.836 124.903 221.496 124.404 221.134 123.928C220.771 123.475 220.442 123.089 220.148 122.772C218.674 122.568 217.28 122.103 215.966 121.378C214.674 120.653 213.529 119.746 212.532 118.658C211.557 117.57 210.786 116.323 210.22 114.918C209.653 113.513 209.37 112.028 209.37 110.464C209.37 108.537 209.755 106.792 210.526 105.228C211.319 103.664 212.328 102.327 213.552 101.216C214.776 100.105 216.147 99.2553 217.666 98.666C219.184 98.054 220.669 97.748 222.12 97.748C223.684 97.748 225.225 98.0427 226.744 98.632C228.285 99.2213 229.645 100.06 230.824 101.148C232.025 102.236 232.988 103.562 233.714 105.126C234.462 106.667 234.836 108.413 234.836 110.362C234.836 112.062 234.484 113.683 233.782 115.224C233.102 116.743 232.172 118.08 230.994 119.236C229.838 120.392 228.489 121.31 226.948 121.99C225.429 122.647 223.82 122.976 222.12 122.976C221.689 122.976 221.304 122.942 220.964 122.874C221.19 123.123 221.406 123.327 221.61 123.486C221.836 123.645 222.108 123.769 222.426 123.86C222.766 123.973 223.162 124.064 223.616 124.132C224.069 124.2 224.647 124.268 225.35 124.336C226.483 124.449 227.333 124.767 227.9 125.288C228.489 125.809 228.999 126.455 229.43 127.226C229.656 127.634 229.849 127.963 230.008 128.212C230.189 128.484 230.393 128.699 230.62 128.858C230.869 129.017 231.164 129.119 231.504 129.164C231.866 129.232 232.342 129.266 232.932 129.266V129.742Z" fill="black"/>
</svg>
